<svg width="97" height="151" viewBox="0 0 97 151" fill="none" xmlns="http://www.w3.org/2000/svg">
<path fill-rule="evenodd" clip-rule="evenodd" d="M48.5928 40.3386H30.5752C13.8203 40.3386 0.19043 53.9697 0.19043 70.7236V84.6396H2.68945C35.8398 84.6396 40.7881 102.716 40.7881 113.49V114.999L48.5928 121.741V40.3386ZM48.5928 134.74C48.5898 134.74 48.5869 134.74 48.584 134.74C45.5625 134.74 42.5361 133.689 40.0938 131.578L27.7881 120.948V113.49C27.7881 108.747 27.7881 97.6396 2.68945 97.6396H0.19043L0.191406 108.864C0.191406 119.376 5.76367 129.311 14.7334 134.791L32.8809 145.88C37.7285 148.842 43.1582 150.334 48.5928 150.358V134.74ZM14.4043 13.4927C10.502 8.33374 5.72559 3.95068 0.19043 0.44873V39.7947C6.13281 33.9558 13.7432 29.8127 22.2334 28.1516C20.377 22.8838 17.7383 17.9016 14.4043 13.4927Z" fill="#FFB07C"/>
<path fill-rule="evenodd" clip-rule="evenodd" d="M48.5928 40.3387H66.6101C83.3651 40.3387 96.9951 53.9697 96.9951 70.7237V84.6397H94.4961C61.3461 84.6397 56.3971 102.716 56.3971 113.49V114.999L48.5931 121.741L48.5928 121.74V40.3387ZM48.5928 134.74C48.5956 134.74 48.5983 134.74 48.6011 134.74C51.6231 134.74 54.6491 133.689 57.0921 131.578L69.3971 120.948V113.49C69.3971 108.747 69.3971 97.6397 94.4961 97.6397H96.9941V108.864C96.9941 119.376 91.4221 129.311 82.4521 134.791L64.3051 145.88C59.4575 148.841 54.0274 150.334 48.5928 150.358V134.74ZM82.7811 13.4927C86.6831 8.33373 91.4601 3.95073 96.9951 0.44873V39.7947C91.0531 33.9557 83.4421 29.8127 74.9521 28.1517C76.8081 22.8837 79.4471 17.9017 82.7811 13.4927Z" fill="#EB945B"/>
<path fill-rule="evenodd" clip-rule="evenodd" d="M47.5928 40.3384H48.5928H49.5928L49.5928 120.876L48.5924 121.74L47.5928 120.877L47.5928 40.3384ZM48.5844 134.739H48.5928H48.6011C48.9319 134.739 49.2627 134.727 49.5928 134.702L49.5928 150.337C49.2595 150.349 48.9262 150.356 48.5928 150.358C48.2594 150.356 47.926 150.349 47.5928 150.337L47.5928 134.702C47.9229 134.727 48.2537 134.739 48.5844 134.739Z" fill="#FFC198"/>
</svg>
