<svg width="256" height="256" viewBox="0 0 256 256" fill="none" xmlns="http://www.w3.org/2000/svg">
<rect width="256" height="256" fill="#FFF7F2"/>
<path fill-rule="evenodd" clip-rule="evenodd" d="M128.533 86.3096H106.893C86.7695 86.3096 70.3994 102.681 70.3994 122.803V139.517H73.4008C113.216 139.517 119.159 161.228 119.159 174.168V175.98L128.533 184.078V86.3096ZM128.533 199.69C128.529 199.69 128.526 199.69 128.522 199.69C124.893 199.69 121.258 198.428 118.325 195.892L103.545 183.125V174.168C103.545 168.471 103.545 155.131 73.4008 155.131H70.3994L70.4006 168.612C70.4006 181.237 77.0931 193.169 87.8662 199.751L109.662 213.07C115.484 216.627 122.006 218.419 128.533 218.448V199.69ZM87.4709 54.0665C82.7841 47.8704 77.0474 42.6061 70.3994 38.4001V85.6564C77.5365 78.6436 86.6769 73.6676 96.874 71.6725C94.6444 65.3457 91.4752 59.3618 87.4709 54.0665Z" fill="#FFB07C"/>
<path fill-rule="evenodd" clip-rule="evenodd" d="M128.533 86.3098H150.173C170.296 86.3098 186.667 102.681 186.667 122.804V139.517H183.665C143.85 139.517 137.907 161.228 137.907 174.168V175.98L128.534 184.078L128.533 184.076V86.3098ZM128.533 199.69C128.537 199.69 128.54 199.69 128.543 199.69C132.173 199.69 135.807 198.428 138.741 195.892L153.52 183.125V174.168C153.52 168.471 153.52 155.131 183.665 155.131H186.665V168.612C186.665 181.237 179.973 193.169 169.2 199.751L147.404 213.07C141.582 216.626 135.06 218.419 128.533 218.448V199.69ZM169.595 54.0665C174.281 47.8704 180.019 42.6062 186.667 38.4001V85.6564C179.53 78.6435 170.389 73.6676 160.192 71.6726C162.421 65.3455 165.591 59.3619 169.595 54.0665Z" fill="#EB945B"/>
<path fill-rule="evenodd" clip-rule="evenodd" d="M127.332 86.3093H128.533H129.734V183.039L128.533 184.076L127.332 183.04V86.3093ZM128.523 199.689H128.533H128.543C128.94 199.689 129.338 199.674 129.734 199.644V218.423C129.334 218.437 128.934 218.445 128.533 218.448C128.133 218.445 127.732 218.437 127.332 218.423V199.644C127.728 199.674 128.126 199.689 128.523 199.689Z" fill="#FFC198"/>
</svg>
